<svg xmlns="http://www.w3.org/2000/svg">
    <symbol id="back" viewBox="0 0 400.004 400.004">
      <path d="M382.688,182.686H59.116l77.209-77.214c6.764-6.76,6.764-17.726,0-24.485c-6.764-6.764-17.73-6.764-24.484,0L5.073,187.757
		c-6.764,6.76-6.764,17.727,0,24.485l106.768,106.775c3.381,3.383,7.812,5.072,12.242,5.072c4.43,0,8.861-1.689,12.242-5.072
		c6.764-6.76,6.764-17.726,0-24.484l-77.209-77.218h323.572c9.562,0,17.316-7.753,17.316-17.315
		C400.004,190.438,392.251,182.686,382.688,182.686z"/>
    </symbol>
    <symbol id="check" viewBox="0 0 553.706 553.706">
      <path d="M521.059,0l-316.72,527.872L32.198,269.661l-14.978,9.991l180.027,270.039c1.674,2.521,4.483,4.015,7.489,4.015
		c0.072,0,0.144,0,0.198,0c3.078-0.072,5.923-1.729,7.507-4.375L536.487,9.253L521.059,0z"/>
    </symbol>
    <symbol id="checkmark" viewBox="0 0 611.983 611.983">
      <path d="M217.625,515.458h-0.06c-6.517,0-12.775-2.65-17.379-7.255L7.147,313.77c-9.586-9.646-9.506-25.211,0.1-34.757
			c9.706-9.626,25.211-9.526,34.757,0.1l175.66,176.956L570.021,103.73c9.626-9.606,25.171-9.606,34.757,0
			c9.606,9.586,9.606,25.151,0,34.757L235.003,508.264C230.399,512.867,224.142,515.458,217.625,515.458z"/>
    </symbol>
</svg>